# xmcd
#
# Track frame offsets:
#	150
#	13217
#	26739
#	44153
#	58611
#	73435
#	92209
#	108158
#	128789
#	145364
#	158849
#	174871
#
# Disc length: 2544 seconds
#
# Revision: 3
# Processed by: cddbd v1.5.2PL0 Copyright (c) Steve Scherf et al.
# Submitted via: EasyCDDAExtractor 15.3.0.1
#
DISCID=ae09ee0c
DTITLE=Daniela Romo - Es La Nostalgia
DYEAR=2005
DGENRE=Latin
TTITLE0=Simple
TTITLE1=Debilidad
TTITLE2=Seria Facil
TTITLE3=Cuando Tu Me Amas
TTITLE4=Oracion
TTITLE5=Mañana Sera Igual
TTITLE6=Que Voy A Hacer Sin Ti
TTITLE7=Amar De Este Modo Es Amar
TTITLE8=No Supe Vivir Sin Ti
TTITLE9=Para Tocar El Cielo
TTITLE10=Es La Nostalgia
TTITLE11=Quand Un Oiseau Pleure
EXTD=YEAR: 2005
EXTT0=
EXTT1=
EXTT2=
EXTT3=
EXTT4=
EXTT5=
EXTT6=
EXTT7=
EXTT8=
EXTT9=
EXTT10=
EXTT11=
PLAYORDER=
